<?xml version="1.0" encoding="UTF-8" standalone="no"?>
<!DOCTYPE svg PUBLIC "-//W3C//DTD SVG 1.1//EN" "http://www.w3.org/Graphics/SVG/1.1/DTD/svg11.dtd">
<svg version="1.1" xmlns="http://www.w3.org/2000/svg" xmlns:xlink="http://www.w3.org/1999/xlink" preserveAspectRatio="xMidYMid meet" viewBox="54.31884057971001 57.34782608695663 523.9988751088862 523.9580034450299" width="512" height="511.96"><defs><path d="M253.14 419.67C256.48 423.01 256.48 428.41 253.14 431.74C241.63 443.26 149.5 535.38 137.98 546.9C131.27 553.61 122.35 557.31 112.85 557.31C103.36 557.31 94.44 553.61 87.73 546.9C81.01 540.19 77.32 531.26 77.32 521.77C77.32 512.28 81.01 503.36 87.73 496.64C91.43 492.94 121.06 463.31 124.76 459.61C127.69 456.68 127.69 451.93 124.76 449C121.83 446.07 117.08 446.07 114.16 449C110.45 452.71 80.83 482.33 77.12 486.04C67.58 495.58 62.32 508.27 62.32 521.77C62.32 535.27 67.58 547.96 77.12 557.51C86.67 567.05 99.36 572.31 112.85 572.31C126.35 572.31 139.04 567.05 148.59 557.51C160.1 545.99 252.23 453.86 263.75 442.35C268.19 437.9 270.64 431.99 270.64 425.7C270.64 421.41 269.49 417.28 267.35 413.68C269.76 411.27 289.03 392 291.44 389.59C361.13 437.75 458.32 431.58 521.41 368.48C591.95 297.94 591.96 183.76 521.41 113.22C487.4 79.2 441.75 60.35 393.77 60.35C382.81 60.35 371.79 61.35 361.02 63.33C356.95 64.08 354.25 67.98 355 72.06C355.75 76.13 359.65 78.83 363.73 78.08C373.61 76.27 383.72 75.35 393.77 75.35C437.56 75.35 479.42 92.43 510.8 123.82C575.48 188.5 575.49 293.19 510.8 357.88C451.71 416.97 359.75 421.74 295.4 373.99C295.31 373.91 295.22 373.83 295.13 373.76C282.05 364.03 270.43 352.35 260.87 339.49C260.79 339.4 260.71 339.31 260.64 339.22C197.13 253.64 230.36 128.36 331.64 87.4C335.48 85.85 337.33 81.48 335.78 77.64C334.23 73.8 329.86 71.94 326.02 73.5C217.48 117.4 180.6 249.94 245.04 343.18C242.63 345.59 223.35 364.87 220.94 367.28C217.34 365.13 213.22 363.99 208.92 363.99C202.63 363.99 196.72 366.43 192.28 370.88C186.94 376.22 144.24 418.92 138.9 424.26C135.97 427.19 135.97 431.93 138.9 434.86C141.83 437.79 146.58 437.79 149.51 434.86C154.85 429.52 197.55 386.82 202.89 381.48C206.22 378.15 211.62 378.15 214.95 381.48C222.59 389.12 245.5 412.03 253.14 419.67ZM257.25 402.57L232.06 377.37C245.31 364.12 252.68 356.75 254.15 355.28C261.45 364.14 269.86 372.67 279.35 380.47C276.4 383.42 269.04 390.78 257.25 402.57Z" id="b2d1dnjuiH"></path><path d="M486.69 333.04C537.92 281.81 537.92 198.45 486.69 147.21C435.46 95.98 352.09 95.98 300.86 147.21C249.59 198.49 249.59 281.76 300.86 333.04C352.14 384.31 435.41 384.32 486.69 333.04ZM476.08 157.82C521.46 203.2 521.46 277.05 476.08 322.43C430.67 367.85 356.89 367.85 311.47 322.43C289.52 300.48 277.44 271.25 277.44 240.12C277.44 175.34 329.79 123.78 393.78 123.78C423.58 123.78 453.39 135.13 476.08 157.82Z" id="b1CvVl3jLe"></path></defs><g><g><g><filter id="shadow8439091" x="43.32" y="41.35" width="552" height="552.96" filterUnits="userSpaceOnUse" primitiveUnits="userSpaceOnUse"><feFlood></feFlood><feComposite in2="SourceAlpha" operator="in"></feComposite><feGaussianBlur stdDeviation="2.24"></feGaussianBlur><feOffset dx="-2" dy="3" result="afterOffset"></feOffset><feFlood flood-color="#232121" flood-opacity="0.55"></feFlood><feComposite in2="afterOffset" operator="in"></feComposite><feMorphology operator="dilate" radius="1"></feMorphology><feComposite in2="SourceAlpha" operator="out"></feComposite></filter><path d="M253.14 419.67C256.48 423.01 256.48 428.41 253.14 431.74C241.63 443.26 149.5 535.38 137.98 546.9C131.27 553.61 122.35 557.31 112.85 557.31C103.36 557.31 94.44 553.61 87.73 546.9C81.01 540.19 77.32 531.26 77.32 521.77C77.32 512.28 81.01 503.36 87.73 496.64C91.43 492.94 121.06 463.31 124.76 459.61C127.69 456.68 127.69 451.93 124.76 449C121.83 446.07 117.08 446.07 114.16 449C110.45 452.71 80.83 482.33 77.12 486.04C67.58 495.58 62.32 508.27 62.32 521.77C62.32 535.27 67.58 547.96 77.12 557.51C86.67 567.05 99.36 572.31 112.85 572.31C126.35 572.31 139.04 567.05 148.59 557.51C160.1 545.99 252.23 453.86 263.75 442.35C268.19 437.9 270.64 431.99 270.64 425.7C270.64 421.41 269.49 417.28 267.35 413.68C269.76 411.27 289.03 392 291.44 389.59C361.13 437.75 458.32 431.58 521.41 368.48C591.95 297.94 591.96 183.76 521.41 113.22C487.4 79.2 441.75 60.35 393.77 60.35C382.81 60.35 371.79 61.35 361.02 63.33C356.95 64.08 354.25 67.98 355 72.06C355.75 76.13 359.65 78.83 363.73 78.08C373.61 76.27 383.72 75.35 393.77 75.35C437.56 75.35 479.42 92.43 510.8 123.82C575.48 188.5 575.49 293.19 510.8 357.88C451.71 416.97 359.75 421.74 295.4 373.99C295.31 373.91 295.22 373.83 295.13 373.76C282.05 364.03 270.43 352.35 260.87 339.49C260.79 339.4 260.71 339.31 260.64 339.22C197.13 253.64 230.36 128.36 331.64 87.4C335.48 85.85 337.33 81.48 335.78 77.64C334.23 73.8 329.86 71.94 326.02 73.5C217.48 117.4 180.6 249.94 245.04 343.18C242.63 345.59 223.35 364.87 220.94 367.28C217.34 365.13 213.22 363.99 208.92 363.99C202.63 363.99 196.72 366.43 192.28 370.88C186.94 376.22 144.24 418.92 138.9 424.26C135.97 427.19 135.97 431.93 138.9 434.86C141.83 437.79 146.58 437.79 149.51 434.86C154.85 429.52 197.55 386.82 202.89 381.48C206.22 378.15 211.62 378.15 214.95 381.48C222.59 389.12 245.5 412.03 253.14 419.67ZM257.25 402.57L232.06 377.37C245.31 364.12 252.68 356.75 254.15 355.28C261.45 364.14 269.86 372.67 279.35 380.47C276.4 383.42 269.04 390.78 257.25 402.57Z" id="a6HOuoSh22" fill="white" fill-opacity="1" filter="url(#shadow8439091)"></path></g><use xlink:href="#b2d1dnjuiH" opacity="1" fill="#cccccc" fill-opacity="1"></use><g><use xlink:href="#b2d1dnjuiH" opacity="1" fill-opacity="0" stroke="#000000" stroke-width="1" stroke-opacity="0"></use></g></g><g><g><filter id="shadow12877895" x="244.41" y="90.79" width="300.7" height="301.7" filterUnits="userSpaceOnUse" primitiveUnits="userSpaceOnUse"><feFlood></feFlood><feComposite in2="SourceAlpha" operator="in"></feComposite><feGaussianBlur stdDeviation="2.24"></feGaussianBlur><feOffset dx="-2" dy="3" result="afterOffset"></feOffset><feFlood flood-color="#261616" flood-opacity="0.42"></feFlood><feComposite in2="afterOffset" operator="in"></feComposite><feMorphology operator="dilate" radius="0"></feMorphology><feComposite in2="SourceAlpha" operator="out"></feComposite></filter><path d="M486.69 333.04C537.92 281.81 537.92 198.45 486.69 147.21C435.46 95.98 352.09 95.98 300.86 147.21C249.59 198.49 249.59 281.76 300.86 333.04C352.14 384.31 435.41 384.32 486.69 333.04ZM476.08 157.82C521.46 203.2 521.46 277.05 476.08 322.43C430.67 367.85 356.89 367.85 311.47 322.43C289.52 300.48 277.44 271.25 277.44 240.12C277.44 175.34 329.79 123.78 393.78 123.78C423.58 123.78 453.39 135.13 476.08 157.82Z" id="k2wsrRvhNx" fill="white" fill-opacity="1" filter="url(#shadow12877895)"></path></g><use xlink:href="#b1CvVl3jLe" opacity="1" fill="#dad4d4" fill-opacity="1"></use><g><use xlink:href="#b1CvVl3jLe" opacity="1" fill-opacity="0" stroke="#000000" stroke-width="1" stroke-opacity="0"></use></g></g></g></svg>